<?xml version="1.0" encoding="utf-8"?>
<!-- Generator: Adobe Illustrator 26.3.1, SVG Export Plug-In . SVG Version: 6.00 Build 0)  -->
<svg version="1.1" id="Layer_1" xmlns="http://www.w3.org/2000/svg" xmlns:xlink="http://www.w3.org/1999/xlink" x="0px" y="0px"
	 viewBox="0 0 466.25 414.41" style="enable-background:new 0 0 466.25 414.41;" xml:space="preserve">
<style type="text/css">
	.st0{fill:url(#SVGID_1_);}
	.st1{fill:url(#SVGID_00000152954533627997680530000000468843174559820447_);}
	.st2{fill:url(#SVGID_00000049196781087417656470000002755194589945209493_);}
	.st3{fill:url(#SVGID_00000166660041845740504060000007338467159788531627_);}
</style>
<linearGradient id="SVGID_1_" gradientUnits="userSpaceOnUse" x1="230.6826" y1="569.665" x2="5.5841" y2="574.6894" gradientTransform="matrix(1 0 0 -1 0.138 842.055)">
	<stop  offset="0" style="stop-color:#754997"/>
	<stop  offset="1" style="stop-color:#53C3EB"/>
</linearGradient>
<path class="st0" d="M231.3,413.99V302c0-31.7-18.08-61.04-47.54-77.16L1.8,125.31c-0.1,0.08-0.96,1.53-1.26,2.24
	c-0.36,0.86-0.8,2.16-0.8,4.32v156.71c0,1.33,0.77,2.57,2.01,3.23l228.95,122.5C230.96,414.45,231.3,414.28,231.3,413.99z"/>
<linearGradient id="SVGID_00000150087004347706866390000013371156489333274009_" gradientUnits="userSpaceOnUse" x1="238.7602" y1="572.699" x2="460.3056" y2="571.6921" gradientTransform="matrix(1 0 0 -1 0.138 842.055)">
	<stop  offset="0" style="stop-color:#E5057A"/>
	<stop  offset="1" style="stop-color:#483F92"/>
</linearGradient>
<path style="fill:url(#SVGID_00000150087004347706866390000013371156489333274009_);" d="M234.6,414.04V300.66
	c0-31.89,18.3-61.39,48.04-77.43l181.52-97.92c0,0,0.37,0.28,1.2,2.07c0.83,1.79,0.8,3.83,0.8,3.83v157.42
	c0,1.33-0.77,2.57-2.01,3.23l-228.95,122.5C234.94,414.5,234.6,414.32,234.6,414.04z"/>
<linearGradient id="SVGID_00000120552437604253129210000002481426279925513630_" gradientUnits="userSpaceOnUse" x1="234.6423" y1="697.1011" x2="10.0799" y2="697.1011" gradientTransform="matrix(1 0 0 -1 0.138 842.055)">
	<stop  offset="0" style="stop-color:#A1CD8B"/>
	<stop  offset="1" style="stop-color:#3CBFF0"/>
</linearGradient>
<path style="fill:url(#SVGID_00000120552437604253129210000002481426279925513630_);" d="M0,289.53V130.1c0-4,2.3-7.7,6.04-9.7
	L230.96,0.05c0.27-0.14,0.6,0.04,0.6,0.32v113.38c0,31.89-18.3,61.39-48.04,77.43L0.61,289.86C0.34,290,0,289.82,0,289.53z"/>
<linearGradient id="SVGID_00000153674214469279590660000013710069956004489354_" gradientUnits="userSpaceOnUse" x1="466.2809" y1="698.5626" x2="226.5975" y2="695.5415" gradientTransform="matrix(1 0 0 -1 0.138 842.055)">
	<stop  offset="0" style="stop-color:#5B348B"/>
	<stop  offset="1" style="stop-color:#3565AE"/>
</linearGradient>
<path style="fill:url(#SVGID_00000153674214469279590660000013710069956004489354_);" d="M466.25,289.53V130.1c0-4-2.3-7.7-6.04-9.7
	L235.29,0.05c-0.27-0.14-0.6,0.04-0.6,0.32v113.38c0,31.89,18.3,61.39,48.04,77.43l182.92,98.67
	C465.91,290,466.25,289.82,466.25,289.53z"/>
</svg>
