<?xml version="1.0" encoding="utf-8"?>
<!-- Generator: Adobe Illustrator 26.3.1, SVG Export Plug-In . SVG Version: 6.00 Build 0)  -->
<svg version="1.1" id="Layer_1" xmlns="http://www.w3.org/2000/svg" xmlns:xlink="http://www.w3.org/1999/xlink" x="0px" y="0px"
	 viewBox="0 0 595.28 554" style="enable-background:new 0 0 595.28 554;" xml:space="preserve">
<style type="text/css">
	.st0{fill:url(#SVGID_1_);}
	.st1{fill:url(#SVGID_00000067952413086351669540000009063776210260102543_);}
	.st2{fill:url(#SVGID_00000154413204454256845350000013442163069462950798_);}
	.st3{fill:url(#SVGID_00000080912369964360878450000015742884425987833267_);}
	.st4{fill:#202020;}
</style>
<linearGradient id="SVGID_1_" gradientUnits="userSpaceOnUse" x1="292.8626" y1="569.665" x2="67.7642" y2="574.6894" gradientTransform="matrix(1 0 0 -1 0.138 842.055)">
	<stop  offset="0" style="stop-color:#754997"/>
	<stop  offset="1" style="stop-color:#53C3EB"/>
</linearGradient>
<path class="st0" d="M293.48,413.99V302c0-31.7-18.08-61.04-47.54-77.16L63.98,125.31c-0.1,0.08-0.96,1.53-1.26,2.24
	c-0.36,0.86-0.8,2.16-0.8,4.32v156.71c0,1.33,0.77,2.57,2.01,3.23l228.95,122.5C293.14,414.45,293.48,414.28,293.48,413.99z"/>
<linearGradient id="SVGID_00000031207876285110587410000001845321243458256561_" gradientUnits="userSpaceOnUse" x1="300.9403" y1="572.699" x2="522.4857" y2="571.6921" gradientTransform="matrix(1 0 0 -1 0.138 842.055)">
	<stop  offset="0" style="stop-color:#E5057A"/>
	<stop  offset="1" style="stop-color:#483F92"/>
</linearGradient>
<path style="fill:url(#SVGID_00000031207876285110587410000001845321243458256561_);" d="M296.78,414.04V300.66
	c0-31.89,18.3-61.39,48.04-77.43l181.52-97.92c0,0,0.37,0.28,1.2,2.07c0.83,1.79,0.8,3.83,0.8,3.83v157.42
	c0,1.33-0.77,2.57-2.01,3.23l-228.95,122.5C297.12,414.5,296.78,414.32,296.78,414.04z"/>
<linearGradient id="SVGID_00000155857130548271649480000008528546407036382372_" gradientUnits="userSpaceOnUse" x1="296.8224" y1="697.1011" x2="72.26" y2="697.1011" gradientTransform="matrix(1 0 0 -1 0.138 842.055)">
	<stop  offset="0" style="stop-color:#A1CD8B"/>
	<stop  offset="1" style="stop-color:#3CBFF0"/>
</linearGradient>
<path style="fill:url(#SVGID_00000155857130548271649480000008528546407036382372_);" d="M62.18,289.53V130.1c0-4,2.3-7.7,6.04-9.7
	L293.14,0.05c0.27-0.14,0.6,0.04,0.6,0.32v113.38c0,31.89-18.3,61.39-48.04,77.43L62.79,289.86C62.52,290,62.18,289.82,62.18,289.53
	z"/>
<linearGradient id="SVGID_00000125589925970776660720000008079505177873716105_" gradientUnits="userSpaceOnUse" x1="528.4609" y1="698.5626" x2="288.7776" y2="695.5415" gradientTransform="matrix(1 0 0 -1 0.138 842.055)">
	<stop  offset="0" style="stop-color:#5B348B"/>
	<stop  offset="1" style="stop-color:#3565AE"/>
</linearGradient>
<path style="fill:url(#SVGID_00000125589925970776660720000008079505177873716105_);" d="M528.43,289.53V130.1c0-4-2.3-7.7-6.04-9.7
	L297.47,0.05c-0.27-0.14-0.6,0.04-0.6,0.32v113.38c0,31.89,18.3,61.39,48.04,77.43l182.92,98.67
	C528.09,290,528.43,289.82,528.43,289.53z"/>
<path class="st4" d="M68.47,474.21v66.9H48.46l-27.43-30.39v30.39H-2.69v-66.9h20.01l27.43,30.39v-30.39H68.47z M104.53,491.22
	v11.47h30.11v17.01h-30.11v21.41H80.19v-66.9h58.68v17.01H104.53z M162.74,491.7H141.6v-17.49h66.62v17.49h-21.14v49.41h-24.34
	V491.7z M278.99,541.11l-0.21-30.49l-15.68,24.47h-10.72l-15.67-23.42v29.44h-22.17v-66.9h20.01l23.51,35.65l22.89-35.65h20.01
	l0.21,66.9H278.99z M342.01,542.06c-6.26,0-11.89-1.15-16.91-3.44c-4.95-2.36-8.83-5.57-11.65-9.65c-2.82-4.14-4.23-8.82-4.23-14.05
	c0-5.22,1.41-9.88,4.23-13.95c2.82-4.14,6.7-7.36,11.65-9.65c5.02-2.29,10.66-3.44,16.91-3.44c6.33,0,11.96,1.15,16.91,3.44
	c5.02,2.29,8.9,5.51,11.65,9.65c2.82,4.08,4.23,8.73,4.23,13.95c0,5.22-1.41,9.91-4.23,14.05c-2.75,4.08-6.63,7.3-11.65,9.65
	C353.97,540.92,348.33,542.06,342.01,542.06z M342.01,525.24c2.68,0,4.88-0.89,6.6-2.68c1.72-1.85,2.58-4.4,2.58-7.65
	c0-3.25-0.86-5.77-2.58-7.55c-1.72-1.78-3.92-2.68-6.6-2.68c-2.68,0-4.88,0.89-6.6,2.68c-1.72,1.78-2.58,4.3-2.58,7.55
	c0,3.25,0.86,5.8,2.58,7.65C337.13,524.35,339.33,525.24,342.01,525.24z M433.36,525.34v15.77h-53.83v-12.42l23.31-24.08h-22.48
	v-15.77h51.87v12.42l-23.31,24.08H433.36z M465.67,487.87c9.9,0,17.46,2.07,22.69,6.21c5.23,4.08,7.84,10.39,7.84,18.92v28.1h-21.66
	v-6.88c-2.68,5.22-8.01,7.84-15.98,7.84c-4.47,0-8.28-0.7-11.45-2.1c-3.09-1.47-5.47-3.41-7.12-5.83c-1.58-2.49-2.37-5.26-2.37-8.32
	c0-5.16,2.13-9.08,6.39-11.76c4.26-2.68,10.73-4.01,19.39-4.01h9.38c-0.76-4.08-4.3-6.12-10.62-6.12c-2.54,0-5.12,0.38-7.73,1.15
	c-2.61,0.7-4.85,1.69-6.7,2.96l-7.42-14.24c3.23-1.85,7.12-3.28,11.65-4.3C456.56,488.42,461.14,487.87,465.67,487.87z
	 M465.57,529.07c1.65,0,3.13-0.41,4.43-1.24c1.31-0.83,2.27-2.07,2.89-3.73v-3.63h-5.78c-4.74,0-7.12,1.47-7.12,4.4
	c0,1.21,0.48,2.23,1.44,3.06C462.48,528.68,463.85,529.07,465.57,529.07z M506.27,488.83h23.31v52.28h-23.31V488.83z M517.92,484.63
	c-4.19,0-7.6-1.02-10.21-3.06c-2.54-2.1-3.82-4.75-3.82-7.93c0-3.19,1.27-5.8,3.82-7.84c2.61-2.1,6.02-3.15,10.21-3.15
	c4.26,0,7.67,0.99,10.21,2.96c2.54,1.98,3.82,4.52,3.82,7.65c0,3.31-1.27,6.05-3.82,8.22C525.59,483.57,522.19,484.63,517.92,484.63
	z M570.22,542.06c-6.39,0-12.13-1.15-17.22-3.44c-5.02-2.29-8.97-5.51-11.86-9.65c-2.82-4.14-4.23-8.82-4.23-14.05
	c0-5.22,1.41-9.88,4.23-13.95c2.89-4.14,6.84-7.36,11.86-9.65c5.09-2.29,10.83-3.44,17.22-3.44c6.88,0,12.75,1.37,17.63,4.11
	c4.88,2.74,8.25,6.53,10.11,11.37l-18.05,8.22c-2.2-4.59-5.47-6.88-9.8-6.88c-2.75,0-5.05,0.89-6.91,2.68
	c-1.79,1.78-2.68,4.3-2.68,7.55c0,3.31,0.89,5.86,2.68,7.65c1.86,1.78,4.16,2.68,6.91,2.68c4.33,0,7.6-2.29,9.8-6.88l18.05,8.22
	c-1.86,4.84-5.22,8.63-10.11,11.37C582.98,540.69,577.1,542.06,570.22,542.06z"/>
</svg>
