<?xml version="1.0" encoding="utf-8"?>
<!-- Generator: Adobe Illustrator 26.3.1, SVG Export Plug-In . SVG Version: 6.00 Build 0)  -->
<svg version="1.1" id="Layer_1" xmlns="http://www.w3.org/2000/svg" xmlns:xlink="http://www.w3.org/1999/xlink" x="0px" y="0px"
	 viewBox="0 0 595.28 554" style="enable-background:new 0 0 595.28 554;" xml:space="preserve">
<style type="text/css">
	.st0{fill:url(#SVGID_1_);}
	.st1{fill:url(#SVGID_00000029748623016817483610000009919818579233372332_);}
	.st2{fill:url(#SVGID_00000138568530993745493040000001679696665346131859_);}
	.st3{fill:url(#SVGID_00000174604244625825909120000012622732787490697865_);}
	.st4{fill:#FFFFFF;}
</style>
<linearGradient id="SVGID_1_" gradientUnits="userSpaceOnUse" x1="292.8626" y1="569.665" x2="67.7642" y2="574.6894" gradientTransform="matrix(1 0 0 -1 0.138 842.055)">
	<stop  offset="0" style="stop-color:#754997"/>
	<stop  offset="1" style="stop-color:#53C3EB"/>
</linearGradient>
<path class="st0" d="M293.48,413.99V302c0-31.7-18.08-61.04-47.54-77.16L63.98,125.31c-0.1,0.08-0.96,1.53-1.26,2.24
	c-0.36,0.86-0.8,2.16-0.8,4.32v156.71c0,1.33,0.77,2.57,2.01,3.23l228.95,122.5C293.14,414.45,293.48,414.28,293.48,413.99z"/>
<linearGradient id="SVGID_00000159446916830712574530000011686335601596957601_" gradientUnits="userSpaceOnUse" x1="300.9403" y1="572.699" x2="522.4857" y2="571.6921" gradientTransform="matrix(1 0 0 -1 0.138 842.055)">
	<stop  offset="0" style="stop-color:#E5057A"/>
	<stop  offset="1" style="stop-color:#483F92"/>
</linearGradient>
<path style="fill:url(#SVGID_00000159446916830712574530000011686335601596957601_);" d="M296.78,414.04V300.66
	c0-31.89,18.3-61.39,48.04-77.43l181.52-97.92c0,0,0.37,0.28,1.2,2.07c0.83,1.79,0.8,3.83,0.8,3.83v157.42
	c0,1.33-0.77,2.57-2.01,3.23l-228.95,122.5C297.12,414.5,296.78,414.32,296.78,414.04z"/>
<linearGradient id="SVGID_00000059310446543085732850000002131702813273426318_" gradientUnits="userSpaceOnUse" x1="296.8224" y1="697.1011" x2="72.26" y2="697.1011" gradientTransform="matrix(1 0 0 -1 0.138 842.055)">
	<stop  offset="0" style="stop-color:#A1CD8B"/>
	<stop  offset="1" style="stop-color:#3CBFF0"/>
</linearGradient>
<path style="fill:url(#SVGID_00000059310446543085732850000002131702813273426318_);" d="M62.18,289.53V130.1c0-4,2.3-7.7,6.04-9.7
	L293.14,0.05c0.27-0.14,0.6,0.04,0.6,0.32v113.38c0,31.89-18.3,61.39-48.04,77.43L62.79,289.86C62.52,290,62.18,289.82,62.18,289.53
	z"/>
<linearGradient id="SVGID_00000106120548588519091500000013484917104883164841_" gradientUnits="userSpaceOnUse" x1="528.4609" y1="698.5626" x2="288.7776" y2="695.5415" gradientTransform="matrix(1 0 0 -1 0.138 842.055)">
	<stop  offset="0" style="stop-color:#5B348B"/>
	<stop  offset="1" style="stop-color:#3565AE"/>
</linearGradient>
<path style="fill:url(#SVGID_00000106120548588519091500000013484917104883164841_);" d="M528.43,289.53V130.1c0-4-2.3-7.7-6.04-9.7
	L297.47,0.05c-0.27-0.14-0.6,0.04-0.6,0.32v113.38c0,31.89,18.3,61.39,48.04,77.43l182.92,98.67
	C528.09,290,528.43,289.82,528.43,289.53z"/>
<path class="st4" d="M70.84,474.21v66.9H50.92l-27.31-30.39v30.39H0v-66.9h19.92l27.31,30.39v-30.39H70.84z M106.74,491.22v11.47
	h29.98v17.01h-29.98v21.41H82.51v-66.9h58.41v17.01H106.74z M164.69,491.7h-21.05v-17.49h66.32v17.49h-21.05v49.41h-24.23V491.7z
	 M280.42,541.11l-0.2-30.49l-15.61,24.47h-10.68l-15.6-23.42v29.44h-22.07v-66.9h19.92l23.41,35.65l22.79-35.65h19.92l0.21,66.9
	H280.42z M343.16,542.06c-6.23,0-11.84-1.15-16.84-3.44c-4.93-2.36-8.79-5.57-11.6-9.65c-2.81-4.14-4.21-8.82-4.21-14.05
	c0-5.22,1.4-9.88,4.21-13.95c2.81-4.14,6.67-7.36,11.6-9.65c5-2.29,10.61-3.44,16.84-3.44c6.3,0,11.91,1.15,16.84,3.44
	c5,2.29,8.86,5.51,11.6,9.65c2.81,4.08,4.21,8.73,4.21,13.95c0,5.22-1.4,9.91-4.21,14.05c-2.74,4.08-6.6,7.3-11.6,9.65
	C355.06,540.92,349.45,542.06,343.16,542.06z M343.16,525.24c2.67,0,4.86-0.89,6.57-2.68c1.71-1.85,2.57-4.4,2.57-7.65
	c0-3.25-0.86-5.77-2.57-7.55c-1.71-1.78-3.9-2.68-6.57-2.68c-2.67,0-4.86,0.89-6.57,2.68c-1.71,1.78-2.57,4.3-2.57,7.55
	c0,3.25,0.86,5.8,2.57,7.65C338.3,524.35,340.49,525.24,343.16,525.24z M434.1,525.34v15.77h-53.59v-12.42l23.2-24.08h-22.38v-15.77
	h51.64v12.42l-23.2,24.08H434.1z M466.26,487.87c9.86,0,17.38,2.07,22.59,6.21c5.2,4.08,7.8,10.39,7.8,18.92v28.1h-21.56v-6.88
	c-2.67,5.22-7.97,7.84-15.91,7.84c-4.45,0-8.25-0.7-11.4-2.1c-3.08-1.47-5.44-3.41-7.08-5.83c-1.57-2.49-2.36-5.26-2.36-8.32
	c0-5.16,2.12-9.08,6.37-11.76c4.24-2.68,10.68-4.01,19.3-4.01h9.34c-0.75-4.08-4.28-6.12-10.57-6.12c-2.53,0-5.1,0.38-7.7,1.15
	c-2.6,0.7-4.83,1.69-6.67,2.96l-7.39-14.24c3.22-1.85,7.08-3.28,11.6-4.3C457.2,488.42,461.75,487.87,466.26,487.87z M466.16,529.07
	c1.64,0,3.11-0.41,4.41-1.24c1.3-0.83,2.26-2.07,2.88-3.73v-3.63h-5.75c-4.72,0-7.08,1.47-7.08,4.4c0,1.21,0.48,2.23,1.44,3.06
	C463.08,528.68,464.45,529.07,466.16,529.07z M506.68,488.83h23.2v52.28h-23.2V488.83z M518.28,484.63c-4.17,0-7.56-1.02-10.16-3.06
	c-2.53-2.1-3.8-4.75-3.8-7.93c0-3.19,1.27-5.8,3.8-7.84c2.6-2.1,5.99-3.15,10.16-3.15c4.24,0,7.63,0.99,10.16,2.96
	c2.53,1.98,3.8,4.52,3.8,7.65c0,3.31-1.27,6.05-3.8,8.22C525.91,483.57,522.52,484.63,518.28,484.63z M570.35,542.06
	c-6.36,0-12.08-1.15-17.14-3.44c-5-2.29-8.93-5.51-11.81-9.65c-2.81-4.14-4.21-8.82-4.21-14.05c0-5.22,1.4-9.88,4.21-13.95
	c2.87-4.14,6.81-7.36,11.81-9.65c5.06-2.29,10.78-3.44,17.14-3.44c6.84,0,12.7,1.37,17.56,4.11c4.86,2.74,8.21,6.53,10.06,11.37
	L580,511.58c-2.19-4.59-5.44-6.88-9.75-6.88c-2.74,0-5.03,0.89-6.88,2.68c-1.78,1.78-2.67,4.3-2.67,7.55c0,3.31,0.89,5.86,2.67,7.65
	c1.85,1.78,4.14,2.68,6.88,2.68c4.31,0,7.56-2.29,9.75-6.88l17.97,8.22c-1.85,4.84-5.2,8.63-10.06,11.37
	C583.04,540.69,577.19,542.06,570.35,542.06z"/>
</svg>
